<svg fill="none" height="301" viewBox="0 0 909 301" width="909" xmlns="http://www.w3.org/2000/svg"><path clip-rule="evenodd" d="m197.472 46.528v33.264h-61.344v221.184h-31.104v-254.448zm-196.559891 0h92.015991v254.448h-31.104v-221.184h-60.911991zm196.559891-45.792008v32.832008h-196.559891v-32.832008zm165.638 32.832008h-155.52v-32.832008h193.536v25.488008c-33.264 88.56-65.664 175.824-96.336 263.952l-3.456 10.8h-33.264c21.357-61.02 42.93-121.609 64.566-182.376l.009-.025.006-.017c8.994-25.2605 17.998-50.552 27.003-75.918zm-18.581 12.9753c-25.486 72.1387-50.972 144.2777-76.459 216.8487l-12.96 37.584h-35.424c27.216-72.144 53.136-144.288 78.624-216.864l1.296-4.32h-92.016v-33.264h136.944zm265.471 116.2067-54.25 62.25h45l68.5-77-68.5-77h-45l54.25 62.25h-154.25v29.5zm239.014 0-54.25 62.25h45l68.5-77-68.5-77h-45l54.25 62.25h-154.25v29.5z" fill="#fffd54" fill-rule="evenodd"/></svg>