<svg fill="none" height="68" viewBox="0 0 401 68" width="401" xmlns="http://www.w3.org/2000/svg"><g fill="#000"><path d="m20.8161 10.322v57.3816h-7.0497v-49.8898h-13.7664v-7.4918z"/><path d="m44.2966 10.322v7.4918h-13.7664v49.8898h-6.9942v-57.3816z"/><path d="m44.2966 0h-44.2966v7.38082h44.2966z"/><path d="m85.1516 0v43.397c0 4.2731-1.8318 7.6028-3.8857 9.8225-2.1093 2.2198-5.3289 4.0512-9.2145 4.0512-3.7747 0-7.2163-1.8314-9.1591-4.0512-2.1094-2.2197-3.8857-5.5494-3.8857-9.8225v-43.397h7.0497v43.397c0 3.7181 2.5535 6.3819 5.9951 6.3819s6.106-2.6638 6.106-6.3819v-43.397z"/><path d="m95.5319 0v43.3969c0 7.3808-3.2196 13.3188-7.1052 17.2034-3.9967 3.9957-9.5477 7.1034-16.4864 7.1034-3.053 0-5.9395-.666-8.715-1.8869-5.7729-2.4417-10.6023-7.2698-12.9337-13.1522-1.2212-2.9413-1.7763-5.938-1.7763-9.2677v-43.3969h7.3828v43.3969c0 5.0501 2.1649 9.2677 4.8293 11.9314 2.5535 2.8303 6.3836 4.8836 11.2129 4.8836 4.8294 0 8.6595-2.0533 11.213-4.8836 2.6089-2.6637 4.9403-6.8813 4.9403-11.9314v-43.3969z"/><path d="m137.275 67.7036h-8.715c-2.498-3.7181-4.996-7.4918-7.549-11.2099l-.222-.2775h-1.777v11.4874h-7.16v-18.9792h9.603l.444.111c.389 0 .5-.111.5-.111l1.831-.0555c1.555 2.2753 2.887 4.3286 4.386 6.4929z"/><path d="m136.942 21.3655c-1.776-4.3841-4.885-7.6582-9.104-9.6006-2.109-.9434-4.218-1.3873-6.383-1.3873h-9.603v35.4611h9.603c5.051 0 9.214-2.3307 11.823-5.161 2.665-2.8857 4.885-7.2143 4.885-12.5418.056-2.3863-.388-4.6061-1.221-6.7704zm-6.495 10.5995c-1.387 3.4407-4.496 6.271-8.937 6.271h-2.442v-20.4221h2.442c3.053 0 5.163 1.3873 6.828 3.0522 1.554 1.6648 2.776 4.2176 2.776 7.2143 0 1.2764-.167 2.6083-.667 3.8846z"/><path d="m149.987 67.7037h-9.215c-3.774-5.383-7.327-10.5995-10.991-16.038l-2.331-3.4407 3.386-2.0533c5.44-3.3852 10.269-9.3231 10.269-18.0358 0-6.3264-2.664-11.2655-5.884-14.6507-3.219-3.4406-7.716-6.0489-13.766-6.0489h-12.49v60.2674h-7.383v-67.7037h19.928c8.105 0 14.322 3.60716 18.874 8.15774 4.551 4.55056 8.271 11.37646 8.271 19.92266 0 9.7671-4.719 17.3698-10.492 21.8094l-.555.444.389.5549c3.941 5.605 7.993 11.21 11.99 16.815z"/><path d="m219.707 0v67.6482h-7.494v-59.76794l-1.388 2.33074c-7.993 14.0402-16.042 28.2469-23.758 42.1206-7.993-13.9847-15.876-28.0804-23.869-42.1206l-1.388-2.33074v59.82344c-2.331 0-4.441 0-4.441 0h-2.997v-67.7037h11.435c6.883 12.2644 13.711 24.3067 20.594 36.4601l.611 1.0544.61-1.0544c6.883-12.1534 13.711-24.3622 20.594-36.4601z"/><path d="m209.271 18.8127v48.8355h-7.216v-21.1991l-1.333 2.2753c-3.608 6.2709-7.216 12.6528-10.713 18.9238h-5.939c-3.608-6.4374-7.106-12.5974-10.714-18.9238l-1.332-2.2753v21.1991h-4.052c-.278 0-1.61 0-3.22 0v-48.8355l22.315 39.3458z"/><path d="m233.418 0h-7.383v67.6482h7.383z"/><path d="m243.853 0h-7.493v67.6482h7.493z"/><path d="m303.526 0v67.6482h-10.991c-7.327-9.6006-14.432-19.0903-21.649-28.6354l-1.221-1.6093v30.2447h-7.216v-51.7212l33.583 44.2294v-60.1564z"/><path d="m293.146 0v51.7212l-33.583-44.17391v60.15641h-7.383v-67.7037h10.991c7.216 9.6006 14.432 19.0902 21.593 28.6353l1.221 1.6649v-30.3002z"/><path d="m347.101 45.5613v22.1424h-7.161v-14.6506h-11.99v14.6506h-7.161v-22.1424z"/><path d="m346.046 18.9793c-1.942-4.6061-6.05-8.6017-12.156-8.6017-1.832 0-3.386.3329-4.941 1.1099-4.385 1.8868-8.215 6.3819-8.215 12.7638v18.4242h26.312v-18.4242c.055-1.8869-.333-3.6072-1-5.272zm-9.825-.6105c1.999.9434 3.719 2.7748 3.719 5.827v10.9324h-11.99v-10.9324c0-3.5517 2.443-6.3819 5.995-6.3819.833 0 1.555.2219 2.276.5549z"/><path d="m357.481 24.1957v43.4525h-7.493v-43.4525c0-5.2165-2.165-8.8791-4.83-11.7649-2.664-2.71921-6.328-4.9945-11.213-4.9945-7.382 0-12.434 4.7726-14.765 10.3775-.833 2.1088-1.332 4.2176-1.332 6.3819v43.4525h-7.383v-43.4525c0-7.2698 3.108-13.1522 7.105-17.09237 3.886-3.88463 9.437-7.10333 16.375-7.10333 6.828 0 12.49 3.2187 16.487 7.10333 3.83 3.99567 7.049 9.71157 7.049 17.09237z"/><path d="m400.612 60.1564v7.5473h-36.581v-67.7037h7.383v60.1564z"/><path d="m400.612 49.7789v7.4918h-26.256v-57.2707h6.883v49.7789z"/></g></svg>