<svg viewBox="0 0 212.97 46.12" xmlns="http://www.w3.org/2000/svg"><g fill="#1d1d1b"><path d="m27.88 7.28h-5.08l-3.12 12.01-3.97-12.01h-3.53l-3.94 12.01-3.12-12.01h-5.12l5.94 19.44h3.97l4.05-12.2 4.05 12.2h3.97z" fill-rule="evenodd"/><path d="m31.67 7.28h4.83v19.44h-4.83z"/><path d="m31.59 0h4.94v3.96h-4.94z"/><path d="m54.29 7.28h-1.91a6.51 6.51 0 0 0 -4.86 2.09v-2.09h-4.72v19.44h4.83v-11.49c0-2.47 1.63-3.59 3.12-3.59h3.54z" fill-rule="evenodd"/><path d="m71.93 26.72 2.11-4.36h-11.13l8.69-11.39v-3.69h-14.26v4.36h8.1l-8.58 11.39v3.69z" fill-rule="evenodd"/><path d="m109.59 26.72v-4.36h-1.93c-1.15 0-1.67-.64-1.67-1.76v-9h3.6v-4.32h-3.59v-5.19h-4.83v5.19h-2.23l-2.1 4.37h4.32v9.51a5.26 5.26 0 0 0 5.61 5.56z" fill-rule="evenodd"/><path d="m129.68 26.72v-12.8c0-4.55-2.82-6.86-8.24-6.86-3.23 0-5.08.59-7 2.68l3.09 3a4.12 4.12 0 0 1 3.71-1.61c2.56 0 3.6.93 3.6 3.06v1h-4.57c-4.49 0-6.61 2.53-6.61 5.64a6.24 6.24 0 0 0 1.6 4.36 6.56 6.56 0 0 0 4.94 1.72 5.86 5.86 0 0 0 4.8-1.91v1.68zm-4.82-7.17a3.21 3.21 0 0 1 -.71 2.47 3.81 3.81 0 0 1 -3 .93c-1.89 0-2.79-.89-2.79-2.24s1-2.2 2.71-2.2h3.83z" fill-rule="evenodd"/><path d="m151.88 26.72v-12.43a7.22 7.22 0 0 0 -2-5.52 6.28 6.28 0 0 0 -4.57-1.71 6.58 6.58 0 0 0 -4.83 2v-1.78h-4.71v19.44h4.82v-11.72c0-2.66 1.71-3.55 3.23-3.55s3.2.89 3.2 3.55v11.72z" fill-rule="evenodd"/><path d="m174.08 26.72v-12.43a7.26 7.26 0 0 0 -2-5.52 6.28 6.28 0 0 0 -4.57-1.71 6.6 6.6 0 0 0 -4.83 2v-1.78h-4.68v19.44h4.82v-11.72c0-2.66 1.71-3.55 3.23-3.55s3.2.89 3.2 3.55v11.72z" fill-rule="evenodd"/><path d="m196.1 18.51v-2.16c0-5.34-3-9.29-8.43-9.29-5 0-8.42 3.58-8.42 9.92 0 7.88 4.37 10 8.94 10a9.21 9.21 0 0 0 7.35-3.05l-2.93-2.93a5.35 5.35 0 0 1 -4.38 1.83 4 4 0 0 1 -4.23-4.32zm-4.75-3.32h-7.35a5.2 5.2 0 0 1 .44-2.09 3.6 3.6 0 0 1 6.46 0 5.38 5.38 0 0 1 .45 2.09" fill-rule="evenodd"/><path d="m213 7.28h-1.91a6.52 6.52 0 0 0 -4.86 2.09v-2.09h-4.72v19.44h4.83v-11.49c0-2.47 1.63-3.59 3.12-3.59h3.54z" fill-rule="evenodd"/></g><path d="m77.35 7.28h18.3l-2.11 4.36h-18.29z" fill="#f49600" fill-rule="evenodd"/><path d="m77.15 22.5h17.83l-2.05 4.23h-17.83z" fill="#f49600" fill-rule="evenodd"/><path d="m77.35 14.8h18.3l-2.11 4.36h-18.29z" fill="#f49600" fill-rule="evenodd"/><path d="m5.65 46.05v-8.56h.65v8.56z" fill="#1d1d1b"/><path d="m30.49 46.05v-7.05l-2.6 5.86h-.65l-2.65-5.86v7.06h-.65v-8.57h.65l3 6.6 2.91-6.6h.65v8.56z" fill="#1d1d1b"/><path d="m55.33 46.05v-7.05l-2.6 5.86h-.65l-2.65-5.86v7.06h-.65v-8.57h.65l3 6.6 2.92-6.6h.65v8.56z" fill="#1d1d1b"/><path d="m78.36 45.25a3.05 3.05 0 0 1 -2.14.87 3 3 0 0 1 -2.14-.87c-.79-.79-.8-1.54-.8-3.48s0-2.7.8-3.48a3 3 0 0 1 2.14-.88 3.06 3.06 0 0 1 2.14.88c.78.78.79 1.54.79 3.48s-.01 2.69-.79 3.48zm-.52-6.6a2.28 2.28 0 0 0 -1.62-.65 2.3 2.3 0 0 0 -1.63.66c-.61.62-.66 1.28-.66 3.12s0 2.5.66 3.11a2.27 2.27 0 0 0 1.63.67 2.24 2.24 0 0 0 1.62-.67c.61-.61.66-1.27.66-3.11s-.05-2.51-.66-3.13z" fill="#1d1d1b"/><path d="m99.71 46.05h-3.25v-8.56h3.15a2.22 2.22 0 0 1 2.48 2.23 2 2 0 0 1 -1.34 1.93 2.08 2.08 0 0 1 1.47 2.07 2.22 2.22 0 0 1 -2.51 2.33zm-.17-8h-2.43v3.32h2.43c1 0 1.9-.48 1.9-1.66s-.87-1.65-1.9-1.65zm.09 3.9h-2.52v3.51h2.52a1.76 1.76 0 1 0 0-3.51z" fill="#1d1d1b"/><path d="m119.53 46.05v-8.56h.64v8.56z" fill="#1d1d1b"/><path d="m137.81 46.05v-8.56h.65v8h4.54v.58z" fill="#1d1d1b"/><path d="m159.69 46.05v-8.56h.65v8.56z" fill="#1d1d1b"/><path d="m178 46.05v-8.56h5.2v.57h-4.55v3.38h3.87v.56h-3.87v3.45h4.55v.58z" fill="#1d1d1b"/><path d="m205.76 46.05-4.94-7.45v7.45h-.65v-8.56h.65l4.94 7.42v-7.42h.65v8.56z" fill="#1d1d1b"/></svg>