<svg fill="none" height="301" viewBox="0 0 401 301" width="401" xmlns="http://www.w3.org/2000/svg"><g fill="#fff"><path d="m196.56 79.056v-33.264h-92.448v254.448h31.104v-221.184zm-104.544-33.264h-92.016v33.264h60.912v221.184h31.104zm104.544-12.96v-32.832h-196.56v32.832z"/><path d="m206.678 32.832h155.52l-3.456 9.072c-30.672 86.4-61.344 171.936-91.584 258.336h33.264l3.456-10.8c30.672-88.128 63.072-175.392 96.336-263.952v-25.488h-193.536zm60.48 229.824c25.488-72.576 50.976-144.72 76.464-216.864h-136.944v33.264h92.016l-1.296 4.32c-25.488 72.576-51.408 144.72-78.624 216.864h35.424z"/></g></svg>