<svg fill="none" height="31" viewBox="0 0 30 31" width="30" xmlns="http://www.w3.org/2000/svg"><path d="m9.375 17.625h-3.28125c-.29297 0-.46875-.1758-.46875-.4688v-.9374c0-.2344.17578-.4688.46875-.4688h3.28125v-3.75h-3.28125c-.29297 0-.46875-.1758-.46875-.4688v-.9374c0-.2344.17578-.4688.46875-.4688h3.28125v-3.75h-3.28125c-.29297 0-.46875-.17578-.46875-.46875v-.9375c0-.23437.17578-.46875.46875-.46875h3.28125v-1.875c0-.99609-.87891-1.875-1.875-1.875h-5.625c-1.054688 0-1.875.87891-1.875 1.875v26.25c0 .1758 0 .3516.0585938.4688l9.3164062-9.2579zm18.75 3.75h-1.875v3.2812c0 .293-.2344.4688-.4688.4688h-.9374c-.293 0-.4688-.1758-.4688-.4688v-3.2812h-3.75v3.2812c0 .293-.2344.4688-.4688.4688h-.9374c-.293 0-.4688-.1758-.4688-.4688v-3.2812h-3.75v3.2812c0 .293-.2344.4688-.4688.4688h-.9374c-.293 0-.4688-.1758-.4688-.4688v-3.2812h-2.4609l-9.25785 9.3164c.11719.0586.29297.0586.46875.0586h26.25c.9961 0 1.875-.8203 1.875-1.875v-5.625c0-.9961-.8789-1.875-1.875-1.875z" fill="#cf3720"/></svg>