<svg fill="none" height="31" viewBox="0 0 30 31" width="30" xmlns="http://www.w3.org/2000/svg"><path d="m28.2761.684045c-2.8694.201035-8.5559.938165-12.0513 3.685645-.2608.20103-.4173.53609-.4173.87115v24.39226c0 .8042.6782 1.2732 1.252.9382 3.5998-2.3454 8.8168-3.0156 11.3731-3.1496.8869-.067 1.5651-1.0052 1.5651-2.0773v-22.65c.0521-1.1392-.7826-2.077367-1.7216-2.010355zm-14.5033 3.685645c-3.4953-2.74748-9.18185-3.48461-12.05119-3.685645-.939062-.067012-1.72161.871155-1.72161 2.010355v22.65c0 1.0721.678208 2.0103 1.5651 2.0773 2.55632.134 7.77331.8042 11.373 3.1496.5739.335 1.2521-.134 1.2521-.9382v-24.39226c0-.33506-.1565-.67012-.4174-.87115z" fill="#cf3720"/></svg>